/* XPM */
static char * pm_xpm[] = {
"32 32 4 1",
" 	c black",
".	c #000080",
"X	c yellow",
"o	c brown",
"                                ",
" .............................. ",
" .............................. ",
" .............................. ",
" XXXXX......................XXX ",
" XXXXXX....................XXXX ",
" ....XXX..................XX... ",
" ......X..................X.... ",
" ......XX................XX.... ",
" ......XX................X..... ",
" ...X...XX..............XX..... ",
" ..XXX..XX............XXX...X.. ",
" ...X...XX...........XX....XoX. ",
" ........XX.........XX......XX. ",
" ........XX.........XXXX....... ",
" .........XX...........X....... ",
" .........XX...........XX...... ",
" ......XXXX............XXXX.... ",
" .....XX..................XX... ",
" ..XXXX....................XX.. ",
" .XX.......................XX.. ",
" ..XXXX...................XX... ",
" .....XXX.............XXXXX.... ",
" ......XX.............XX....... ",
" ..X..XX...............XXX..... ",
" XXXX.XX.................XXX... ",
" XX..XX....................XXX. ",
" X...........................XX ",
" .............................X ",
" .............................X ",
" .............................. ",
"                                "};
